<?xml version="1.0" encoding="UTF-8"?>
<svg id="Layer_2" data-name="Layer 2" xmlns="http://www.w3.org/2000/svg" viewBox="0 0 503.92 149">
  <defs>
    <style>
      .cls-1 {
        fill: #ed8a1d;
      }

      .cls-2 {
        fill: #ffbc00;
      }

      .cls-3 {
        fill: #ff5900;
      }

      .cls-4 {
        fill: #2e9c9e;
      }
    </style>
  </defs>
  <g id="_クリアスペース" data-name="クリアスペース">
    <g id="Logo_横組大">
      <g id="logo_hab">
        <path class="cls-3" d="m456.48,44.13c-9.17-.38-17.81,1.73-25.31,5.71-1.98,1.05-4.36-.43-4.36-2.67v-29.53c0-3.31-2.69-6-6-6h-10c-3.31,0-6,2.69-6,6v86.55h-.01c0,9.93-7.44,18-16.58,18s-16.58-8.07-16.58-18h-.02v-57.96c0-3.31-2.69-6-6-6h-10c-3.31,0-6,2.69-6,6v1.04c0,2.24-2.39,3.73-4.37,2.67-7.51-4.02-16.17-6.17-25.36-5.81-25.66,1.01-46.55,21.92-47.53,47.58-1.07,28.25,21.51,51.48,49.52,51.48,12.74,0,24.36-4.82,33.14-12.72,1.72-1.55,4.34-1.33,5.81.45,6.74,8.14,16.52,13.27,27.4,13.27s20.58-5.09,27.33-13.18c1.47-1.77,4.08-1.99,5.79-.45,8.77,7.85,20.34,12.63,33.03,12.63,28.01,0,50.58-23.23,49.52-51.48-.97-25.62-21.79-46.52-47.4-47.59Zm-132.53,74.98c-15.73,1.25-28.81-11.83-27.55-27.55.99-12.38,11.01-22.4,23.39-23.39,15.73-1.25,28.81,11.83,27.55,27.55-.99,12.38-11.01,22.4-23.39,23.39Zm132.5,0c-15.73,1.25-28.81-11.83-27.55-27.55.99-12.38,11.01-22.4,23.39-23.39,15.73-1.25,28.81,11.83,27.55,27.55-.99,12.38-11.01,22.4-23.39,23.39Z"/>
        <path class="cls-3" d="m214.19,46.17c-6.97-.05-13.58,1.47-19.49,4.22-2,.93-4.29-.48-4.29-2.68v-30.64c0-3.31-2.69-6-6-6h-10c-3.31,0-6,2.69-6,6v116.79c0,3.31,2.69,6,6,6h10c3.31,0,6-2.69,6-6v-42.24h.01c0-12.92,10.51-23.44,23.44-23.44s23.44,10.51,23.44,23.44h.01v42.39c0,3.31,2.69,6,6,6h10c3.31,0,6-2.69,6-6v-41.58c0-25.1-20.01-46.07-45.12-46.26Z"/>
        <g id="syimbol">
          <g>
            <path class="cls-2" d="m92.45,21.91c1.78-1.77,3.77-3.21,5.88-4.32C95.28,7.45,85.9.04,74.77,0c-11.13-.04-20.56,7.29-23.68,17.41,2.1,1.13,4.07,2.58,5.84,4.36,6.65,6.71,8.66,16.27,6.06,24.71,3.45,1.86,7.4,2.93,11.6,2.95,4.19.02,8.15-1.02,11.61-2.86-2.54-8.46-.46-18,6.24-24.66Z"/>
            <path class="cls-2" d="m49.99,24.62c0-2.51.4-4.93,1.1-7.21-9.32-5.01-21.18-3.61-29.08,4.23-7.9,7.85-9.38,19.71-4.44,29.07,2.28-.69,4.7-1.06,7.21-1.05,9.44.03,17.62,5.37,21.75,13.18,3.76-1.13,7.3-3.16,10.28-6.12,2.98-2.96,5.04-6.49,6.19-10.24-7.77-4.19-13.04-12.41-13.01-21.86Z"/>
            <path class="cls-1" d="m56.94,21.77c-1.77-1.78-3.74-3.23-5.84-4.36-.7,2.28-1.09,4.7-1.1,7.21-.03,9.45,5.24,17.67,13.01,21.86,2.6-8.44.59-18-6.06-24.71Z"/>
            <path class="cls-2" d="m21.89,56.59c-1.77-1.78-3.2-3.77-4.32-5.88C7.44,53.76.04,63.15,0,74.28c-.04,11.14,7.29,20.57,17.4,23.7,1.13-2.1,2.58-4.08,4.36-5.85,6.7-6.66,16.26-8.67,24.69-6.07,1.86-3.46,2.93-7.4,2.94-11.6.02-4.2-1.02-8.15-2.86-11.62-8.45,2.54-17.99.46-24.64-6.25Z"/>
            <path class="cls-1" d="m24.78,49.66c-2.51,0-4.93.36-7.21,1.05,1.11,2.11,2.55,4.1,4.32,5.88,6.65,6.71,16.19,8.79,24.64,6.25-4.13-7.81-12.3-13.15-21.75-13.18Z"/>
            <path class="cls-2" d="m24.6,99.09c-2.51,0-4.93-.4-7.21-1.1-5.01,9.33-3.61,21.2,4.23,29.1,9.61,9.69,25.24,9.74,34.92.13,9.68-9.62,9.73-25.26.13-34.95-2.96-2.98-6.48-5.04-10.23-6.2-4.18,7.78-12.4,13.05-21.84,13.02Z"/>
            <path class="cls-1" d="m21.75,92.14c-1.78,1.77-3.23,3.74-4.36,5.85,2.28.71,4.7,1.09,7.21,1.1,9.44.03,17.66-5.24,21.84-13.02-8.44-2.6-17.99-.59-24.69,6.07Z"/>
            <path class="cls-2" d="m102.47,86.28c-3.76,1.13-7.3,3.16-10.28,6.12-9.68,9.62-9.74,25.26-.13,34.95,9.61,9.69,25.24,9.74,34.92.13,7.9-7.85,9.38-19.71,4.44-29.07-2.28.69-4.7,1.06-7.21,1.05-9.44-.03-17.62-5.37-21.75-13.18Z"/>
            <path class="cls-2" d="m149,74.83c.04-11.14-7.29-20.57-17.39-23.7-1.13,2.1-2.58,4.08-4.36,5.85-6.7,6.66-16.26,8.67-24.69,6.07-1.86,3.46-2.93,7.4-2.94,11.6-.02,4.2,1.02,8.15,2.86,11.62,8.45-2.54,17.99-.46,24.64,6.25,1.77,1.78,3.2,3.77,4.32,5.88,10.13-3.05,17.53-12.44,17.57-23.57Z"/>
            <path class="cls-1" d="m102.47,86.28c4.13,7.81,12.3,13.15,21.75,13.18,2.51,0,4.93-.36,7.21-1.05-1.11-2.11-2.55-4.1-4.32-5.88-6.65-6.71-16.19-8.79-24.64-6.25Z"/>
            <path class="cls-2" d="m124.4,50.03c2.51,0,4.93.4,7.21,1.1,5.01-9.33,3.61-21.2-4.23-29.1-7.84-7.9-19.69-9.39-29.04-4.45.69,2.29,1.06,4.71,1.05,7.22-.03,9.45-5.37,17.64-13.17,21.76,1.13,3.76,3.16,7.31,6.12,10.29,2.96,2.98,6.48,5.04,10.23,6.2,4.18-7.78,12.4-13.05,21.84-13.02Z"/>
            <path class="cls-1" d="m99.38,24.8c0-2.51-.36-4.93-1.05-7.22-2.11,1.11-4.1,2.55-5.88,4.32-6.7,6.66-8.78,16.2-6.24,24.66,7.8-4.13,13.14-12.31,13.17-21.76Z"/>
            <path class="cls-1" d="m127.25,56.98c1.78-1.77,3.23-3.74,4.36-5.85-2.28-.71-4.7-1.09-7.21-1.1-9.44-.03-17.66,5.24-21.84,13.02,8.44,2.6,17.99.59,24.69-6.07Z"/>
          </g>
          <path class="cls-4" d="m64.27,142.02c-.08,1.81-1.35,3.33-3.12,3.72-4.87,1.07-14.8,2.41-20.8-2.63-6-5.04-6.41-15.06-6.2-20.05.08-1.81,1.35-3.33,3.12-3.72,4.87-1.07,14.8-2.41,20.8,2.63,6,5.04,6.41,15.06,6.2,20.05Z"/>
          <path class="cls-4" d="m111.36,119.26c2,.42,3.44,2.18,3.5,4.23.17,5.12-.39,14.71-6.22,19.61-6,5.04-15.93,3.71-20.8,2.63-1.77-.39-3.04-1.91-3.12-3.72-.21-4.99.2-15.01,6.2-20.05,5.85-4.92,15.44-3.77,20.43-2.71Z"/>
          <path class="cls-3" d="m118.99,75.43c0-24.59-19.92-44.52-44.49-44.52s-44.49,19.93-44.49,44.52c0,21.75,15.58,39.84,36.18,43.74l5.24,27.37c.63,3.28,5.31,3.29,5.95.02l5.41-27.39c20.6-3.89,36.18-21.99,36.18-43.74Zm-44.49,22.26c-12.28,0-22.24-9.97-22.24-22.26s9.96-22.26,22.24-22.26,22.24,9.97,22.24,22.26-9.96,22.26-22.24,22.26Z"/>
        </g>
      </g>
    </g>
  </g>
</svg>